<svg xmlns="http://www.w3.org/2000/svg" xmlns:xlink="http://www.w3.org/1999/xlink" width="500" zoomAndPan="magnify" viewBox="0 0 375 374.999991" height="500" preserveAspectRatio="xMidYMid meet" version="1.0"><defs><g/></defs><g fill="#ffffff" fill-opacity="1"><g transform="translate(163.324081, 185.121139)"><g><path d="M 1.398438 -14 C 1.398438 -5.917969 7.839844 0.519531 15.917969 0.519531 C 24 0.519531 30.476562 -5.917969 30.476562 -14 C 30.476562 -22.078125 24 -28.558594 15.917969 -28.558594 C 7.839844 -28.558594 1.398438 -22.078125 1.398438 -14 Z M 5.558594 -14 C 5.558594 -19.757812 10.160156 -24.398438 15.917969 -24.398438 C 21.679688 -24.398438 26.316406 -19.757812 26.316406 -14 C 26.316406 -8.238281 21.679688 -3.640625 15.917969 -3.640625 C 10.160156 -3.640625 5.558594 -8.238281 5.558594 -14 Z M 5.558594 -14 "/></g></g></g><g fill="#ffffff" fill-opacity="1"><g transform="translate(195.48089, 185.121139)"><g><path d="M 1.398438 -14 C 1.398438 -5.917969 7.839844 0.519531 15.917969 0.519531 C 24 0.519531 30.476562 -5.917969 30.476562 -14 C 30.476562 -22.078125 24 -28.558594 15.917969 -28.558594 C 7.839844 -28.558594 1.398438 -22.078125 1.398438 -14 Z M 5.558594 -14 C 5.558594 -19.757812 10.160156 -24.398438 15.917969 -24.398438 C 21.679688 -24.398438 26.316406 -19.757812 26.316406 -14 C 26.316406 -8.238281 21.679688 -3.640625 15.917969 -3.640625 C 10.160156 -3.640625 5.558594 -8.238281 5.558594 -14 Z M 5.558594 -14 "/></g></g></g><g fill="#ffffff" fill-opacity="1"><g transform="translate(227.637699, 185.121139)"><g><path d="M 3.441406 0 L 7.480469 0 L 7.480469 -19.71875 L 14.800781 -8.839844 L 17.078125 -8.839844 L 24.398438 -19.71875 L 24.398438 0 L 28.398438 0 L 28.398438 -28 L 25.199219 -28 L 15.960938 -14.398438 L 6.71875 -28 L 3.441406 -28 Z M 3.441406 0 "/></g></g></g><g fill="#ffffff" fill-opacity="1"><g transform="translate(163.687362, 215.871137)"><g><path d="M 0.875 -8.75 C 0.875 -3.699219 4.898438 0.324219 9.949219 0.324219 C 15 0.324219 19.046875 -3.699219 19.046875 -8.75 C 19.046875 -13.796875 15 -17.847656 9.949219 -17.847656 C 4.898438 -17.847656 0.875 -13.796875 0.875 -8.75 Z M 3.476562 -8.75 C 3.476562 -12.347656 6.347656 -15.25 9.949219 -15.25 C 13.546875 -15.25 16.449219 -12.347656 16.449219 -8.75 C 16.449219 -5.148438 13.546875 -2.273438 9.949219 -2.273438 C 6.347656 -2.273438 3.476562 -5.148438 3.476562 -8.75 Z M 3.476562 -8.75 "/></g></g></g><g fill="#ffffff" fill-opacity="1"><g transform="translate(183.784182, 215.871137)"><g><path d="M 8.550781 -17.5 L 2.148438 -17.5 L 2.148438 0 L 4.699219 0 L 4.699219 -5.824219 L 8.550781 -5.824219 C 12.324219 -5.824219 14.222656 -8.722656 14.222656 -11.648438 C 14.222656 -14.574219 12.324219 -17.5 8.550781 -17.5 Z M 8.550781 -8.324219 L 4.699219 -8.324219 L 4.699219 -14.949219 L 8.550781 -14.949219 C 10.675781 -14.949219 11.722656 -13.296875 11.722656 -11.625 C 11.722656 -9.972656 10.675781 -8.324219 8.550781 -8.324219 Z M 8.550781 -8.324219 "/></g></g></g><g fill="#ffffff" fill-opacity="1"><g transform="translate(198.631826, 215.871137)"><g><path d="M 5.449219 -15.273438 L 5.449219 0 L 7.972656 0 L 7.972656 -15.273438 L 13.25 -15.273438 L 13.25 -17.671875 L 0.148438 -17.671875 L 0.148438 -15.273438 Z M 5.449219 -15.273438 "/></g></g></g><g fill="#ffffff" fill-opacity="1"><g transform="translate(212.054703, 215.871137)"><g><path d="M 7.925781 -15.324219 L 11.175781 -15.324219 L 11.175781 -17.648438 L 2.148438 -17.648438 L 2.148438 -15.324219 L 5.398438 -15.324219 L 5.398438 -2.351562 L 2.148438 -2.351562 L 2.148438 0 L 11.175781 0 L 11.175781 -2.351562 L 7.925781 -2.351562 Z M 7.925781 -15.324219 "/></g></g></g><g fill="#ffffff" fill-opacity="1"><g transform="translate(225.3526, 215.871137)"><g><path d="M 0.976562 -8.699219 C 0.976562 -6.273438 2.023438 -4.050781 3.523438 -2.449219 C 5.050781 -0.851562 7.25 0.125 9.625 0.125 C 13.699219 0.125 16.898438 -2.574219 17.898438 -6.550781 L 15.421875 -6.550781 C 14.523438 -3.898438 12.273438 -2.375 9.625 -2.375 C 7.949219 -2.375 6.273438 -3.074219 5.175781 -4.222656 C 4.074219 -5.375 3.425781 -6.949219 3.425781 -8.699219 C 3.425781 -10.5 4.097656 -12.046875 5.199219 -13.199219 C 6.300781 -14.347656 7.949219 -15.148438 9.625 -15.148438 C 12.199219 -15.148438 14.347656 -13.75 15.273438 -11.125 L 17.773438 -11.125 C 16.773438 -15.074219 13.625 -17.648438 9.625 -17.648438 C 7.25 -17.648438 4.972656 -16.546875 3.449219 -14.972656 C 1.949219 -13.375 0.976562 -11.175781 0.976562 -8.699219 Z M 0.976562 -8.699219 "/></g></g></g><g fill="#ffffff" fill-opacity="1"><g transform="translate(244.19961, 215.871137)"><g><path d="M 10.898438 -12.972656 L 13.398438 -13.074219 C 12.949219 -16.273438 10.148438 -17.671875 7.449219 -17.671875 C 5.425781 -17.671875 3.324219 -16.875 2.148438 -15.347656 C 1.5 -14.5 1.175781 -13.5 1.175781 -12.449219 C 1.175781 -12.324219 1.199219 -12.171875 1.199219 -12.023438 L 1.199219 -12.046875 C 1.476562 -8.398438 4.675781 -7.800781 7.398438 -7.523438 C 9.148438 -7.347656 10.949219 -7.125 11.25 -5.800781 C 11.300781 -5.574219 11.324219 -5.375 11.324219 -5.199219 C 11.324219 -3.398438 9.273438 -2.351562 7.398438 -2.351562 C 5.773438 -2.351562 3.800781 -3.199219 3.625 -4.824219 L 3.625 -4.722656 L 3.601562 -5.097656 L 1.050781 -5.050781 L 1.074219 -4.574219 C 1.398438 -1.449219 4.675781 0.148438 7.375 0.148438 C 10.523438 0.148438 13.875 -1.800781 13.875 -5.175781 C 13.875 -5.523438 13.824219 -5.949219 13.75 -6.324219 C 13.074219 -9.125 10.097656 -9.75 7.699219 -10.050781 C 5.75 -10.222656 3.726562 -10.472656 3.726562 -12.5 C 3.726562 -13 3.851562 -13.5 4.148438 -13.875 C 4.875 -14.796875 6.199219 -15.199219 7.398438 -15.199219 C 8.898438 -15.199219 10.550781 -14.523438 10.898438 -12.972656 Z M 10.898438 -12.972656 "/></g></g></g><g fill="#ffffff" fill-opacity="1"><g transform="translate(115.005934, 214.874986)"><g><path d="M 12.816406 -7.347656 L 44.65625 -51.269531 L 44.65625 -57.71875 L 3.265625 -57.71875 L 3.265625 -50.371094 L 34.941406 -50.371094 L 3.265625 -6.777344 L 3.265625 0 L 45.0625 0 L 45.0625 -7.347656 Z M 12.816406 -7.347656 "/></g></g></g></svg>